<svg width="1200" height="630" viewBox="0 0 1200 630" xmlns="http://www.w3.org/2000/svg">
  <defs>
    <!-- グラデーション定義 -->
    <linearGradient id="bgGradient" x1="0%" y1="0%" x2="100%" y2="100%">
      <stop offset="0%" style="stop-color:#1e40af;stop-opacity:1" />
      <stop offset="30%" style="stop-color:#2563eb;stop-opacity:1" />
      <stop offset="70%" style="stop-color:#4f46e5;stop-opacity:1" />
      <stop offset="100%" style="stop-color:#7c3aed;stop-opacity:1" />
    </linearGradient>
    
    <linearGradient id="chartGradient1" x1="0%" y1="0%" x2="100%" y2="100%">
      <stop offset="0%" style="stop-color:#10b981;stop-opacity:0.9" />
      <stop offset="100%" style="stop-color:#059669;stop-opacity:0.9" />
    </linearGradient>
    
    <linearGradient id="chartGradient2" x1="0%" y1="0%" x2="100%" y2="100%">
      <stop offset="0%" style="stop-color:#f59e0b;stop-opacity:0.9" />
      <stop offset="100%" style="stop-color:#d97706;stop-opacity:0.9" />
    </linearGradient>
    
    <linearGradient id="chartGradient3" x1="0%" y1="0%" x2="100%" y2="100%">
      <stop offset="0%" style="stop-color:#ec4899;stop-opacity:0.9" />
      <stop offset="100%" style="stop-color:#db2777;stop-opacity:0.9" />
    </linearGradient>

    <!-- フィルター定義 -->
    <filter id="glow" x="-50%" y="-50%" width="200%" height="200%">
      <feGaussianBlur stdDeviation="4" result="coloredBlur"/>
      <feMerge> 
        <feMergeNode in="coloredBlur"/>
        <feMergeNode in="SourceGraphic"/>
      </feMerge>
    </filter>
    
    <filter id="shadow" x="-50%" y="-50%" width="200%" height="200%">
      <feDropShadow dx="4" dy="4" stdDeviation="6" flood-opacity="0.3"/>
    </filter>

    <!-- パターン定義 -->
    <pattern id="dots" patternUnits="userSpaceOnUse" width="40" height="40">
      <circle cx="20" cy="20" r="2" fill="rgba(255,255,255,0.1)"/>
    </pattern>
  </defs>
  
  <!-- 背景 -->
  <rect width="1200" height="630" fill="url(#bgGradient)"/>
  <rect width="1200" height="630" fill="url(#dots)"/>
  
  <!-- 装飾的な背景要素 -->
  <g opacity="0.1">
    <circle cx="100" cy="100" r="80" fill="rgba(255,255,255,0.3)"/>
    <circle cx="1100" cy="530" r="60" fill="rgba(255,255,255,0.2)"/>
    <circle cx="50" cy="580" r="40" fill="rgba(255,255,255,0.25)"/>
    <circle cx="1150" cy="50" r="35" fill="rgba(255,255,255,0.2)"/>
  </g>
  
  <!-- メインビジュアル -->
  <g transform="translate(600,315)">
    
    <!-- 中央の大きなダッシュボード -->
    <g filter="url(#shadow)">
      <rect x="-200" y="-150" width="400" height="300" rx="20" fill="rgba(255,255,255,0.95)"/>
      
      <!-- ダッシュボード内のチャート要素 -->
      <g transform="translate(0,-60)">
        <!-- 円形プログレスチャート -->
        <circle cx="-80" cy="0" r="40" fill="none" stroke="rgba(229,231,235,1)" stroke-width="8"/>
        <circle cx="-80" cy="0" r="40" fill="none" stroke="url(#chartGradient1)" stroke-width="8" 
                stroke-dasharray="188" stroke-dashoffset="47" 
                stroke-linecap="round" transform="rotate(-90 -80 0)"/>
        <text x="-80" y="5" text-anchor="middle" fill="#374151" font-family="sans-serif" font-size="14" font-weight="bold">75%</text>
        
        <!-- バーチャート -->
        <g transform="translate(20,-30)">
          <rect x="0" y="30" width="20" height="30" fill="url(#chartGradient1)" rx="2"/>
          <rect x="25" y="20" width="20" height="40" fill="url(#chartGradient2)" rx="2"/>
          <rect x="50" y="35" width="20" height="25" fill="url(#chartGradient3)" rx="2"/>
          <rect x="75" y="15" width="20" height="45" fill="url(#chartGradient1)" rx="2"/>
          <rect x="100" y="25" width="20" height="35" fill="url(#chartGradient2)" rx="2"/>
        </g>
      </g>
      
      <!-- ダッシュボード下部の進捗バー -->
      <g transform="translate(0,60)">
        <rect x="-150" y="0" width="300" height="8" rx="4" fill="rgba(229,231,235,1)"/>
        <rect x="-150" y="0" width="225" height="8" rx="4" fill="url(#chartGradient1)"/>
        
        <rect x="-150" y="20" width="300" height="8" rx="4" fill="rgba(229,231,235,1)"/>
        <rect x="-150" y="20" width="180" height="8" rx="4" fill="url(#chartGradient2)"/>
        
        <rect x="-150" y="40" width="300" height="8" rx="4" fill="rgba(229,231,235,1)"/>
        <rect x="-150" y="40" width="270" height="8" rx="4" fill="url(#chartGradient3)"/>
      </g>
    </g>
    
    <!-- 左側のサブカード -->
    <g transform="translate(-320,0)" filter="url(#shadow)">
      <rect x="-60" y="-80" width="120" height="160" rx="15" fill="rgba(255,255,255,0.9)"/>
      
      <!-- 目標アイコン -->
      <g transform="translate(0,-20)">
        <circle cx="0" cy="0" r="25" fill="url(#bgGradient)"/>
        <circle cx="0" cy="0" r="18" fill="rgba(255,255,255,0.9)"/>
        <circle cx="0" cy="0" r="12" fill="url(#chartGradient1)"/>
        <circle cx="0" cy="0" r="6" fill="rgba(255,255,255,0.9)"/>
      </g>
      
      <!-- 進捗表示 -->
      <g transform="translate(0,30)">
        <rect x="-40" y="0" width="80" height="6" rx="3" fill="rgba(229,231,235,1)"/>
        <rect x="-40" y="0" width="56" height="6" rx="3" fill="url(#chartGradient1)"/>
      </g>
    </g>
    
    <!-- 右側のサブカード -->
    <g transform="translate(320,0)" filter="url(#shadow)">
      <rect x="-60" y="-80" width="120" height="160" rx="15" fill="rgba(255,255,255,0.9)"/>
      
      <!-- 統計アイコン -->
      <g transform="translate(0,-20)">
        <rect x="-20" y="-15" width="8" height="30" fill="url(#chartGradient2)" rx="2"/>
        <rect x="-8" y="-20" width="8" height="35" fill="url(#chartGradient1)" rx="2"/>
        <rect x="4" y="-10" width="8" height="25" fill="url(#chartGradient3)" rx="2"/>
        <rect x="16" y="-25" width="8" height="40" fill="url(#chartGradient2)" rx="2"/>
      </g>
      
      <!-- 進捗表示 -->
      <g transform="translate(0,30)">
        <rect x="-40" y="0" width="80" height="6" rx="3" fill="rgba(229,231,235,1)"/>
        <rect x="-40" y="0" width="64" height="6" rx="3" fill="url(#chartGradient2)"/>
      </g>
    </g>
  </g>
  
  <!-- フローティング要素 -->
  <g opacity="0.8">
    <!-- 左上のフローティングチャート -->
    <g transform="translate(150,150)" filter="url(#glow)">
      <circle cx="0" cy="0" r="30" fill="rgba(255,255,255,0.9)"/>
      <circle cx="0" cy="0" r="20" fill="none" stroke="url(#chartGradient1)" stroke-width="4" 
              stroke-dasharray="75" stroke-dashoffset="25" 
              stroke-linecap="round" transform="rotate(-90)"/>
    </g>
    
    <!-- 右上のフローティングバー -->
    <g transform="translate(1050,120)" filter="url(#glow)">
      <rect x="-25" y="-20" width="50" height="40" rx="8" fill="rgba(255,255,255,0.9)"/>
      <rect x="-20" y="-10" width="6" height="20" fill="url(#chartGradient1)" rx="2"/>
      <rect x="-10" y="-15" width="6" height="25" fill="url(#chartGradient2)" rx="2"/>
      <rect x="0" y="-5" width="6" height="15" fill="url(#chartGradient3)" rx="2"/>
      <rect x="10" y="-18" width="6" height="28" fill="url(#chartGradient1)" rx="2"/>
    </g>
    
    <!-- 左下のフローティング要素 -->
    <g transform="translate(120,500)" filter="url(#glow)">
      <rect x="-30" y="-15" width="60" height="30" rx="8" fill="rgba(255,255,255,0.9)"/>
      <rect x="-25" y="-5" width="50" height="3" rx="1.5" fill="rgba(229,231,235,1)"/>
      <rect x="-25" y="-5" width="35" height="3" rx="1.5" fill="url(#chartGradient2)"/>
      <rect x="-25" y="2" width="50" height="3" rx="1.5" fill="rgba(229,231,235,1)"/>
      <rect x="-25" y="2" width="40" height="3" rx="1.5" fill="url(#chartGradient1)"/>
    </g>
    
    <!-- 右下のターゲットアイコン -->
    <g transform="translate(1050,510)" filter="url(#glow)">
      <circle cx="0" cy="0" r="25" fill="rgba(255,255,255,0.9)"/>
      <circle cx="0" cy="0" r="18" fill="url(#bgGradient)"/>
      <circle cx="0" cy="0" r="12" fill="rgba(255,255,255,0.9)"/>
      <circle cx="0" cy="0" r="8" fill="url(#chartGradient1)"/>
      <circle cx="0" cy="0" r="4" fill="rgba(255,255,255,0.9)"/>
    </g>
  </g>
  
  <!-- 接続線（データフロー表現） -->
  <g opacity="0.3" stroke="rgba(255,255,255,0.6)" stroke-width="2" fill="none">
    <path d="M150,150 Q300,200 400,250" stroke-dasharray="5,5"/>
    <path d="M1050,120 Q900,180 800,250" stroke-dasharray="5,5"/>
    <path d="M120,500 Q300,450 400,400" stroke-dasharray="5,5"/>
    <path d="M1050,510 Q900,450 800,400" stroke-dasharray="5,5"/>
  </g>
</svg>